<?xml version="1.0" encoding="UTF-8"?>
<svg version="1.1" xmlns="http://www.w3.org/2000/svg" width="1024" height="1024">
<path d="M0 0 C337.92 0 675.84 0 1024 0 C1024 337.92 1024 675.84 1024 1024 C686.08 1024 348.16 1024 0 1024 C0 686.08 0 348.16 0 0 Z " fill="#FEF4DD" transform="translate(0,0)"/>
<path d="M0 0 C337.92 0 675.84 0 1024 0 C1024 337.92 1024 675.84 1024 1024 C686.08 1024 348.16 1024 0 1024 C0 686.08 0 348.16 0 0 Z M159.46191406 191.87988281 C155.1953679 196.65329362 151.39701192 201.56478093 148 207 C147.64454102 207.56332031 147.28908203 208.12664062 146.92285156 208.70703125 C142.00433526 216.54037658 137.42031349 224.38126303 134 233 C133.7618457 233.59441895 133.52369141 234.18883789 133.27832031 234.80126953 C126.85130238 251.08875034 122.82972335 268.66085009 122.86577892 286.22347927 C122.86342669 287.015379 122.86107446 287.80727872 122.85865095 288.62317541 C122.8520093 291.2690969 122.85241771 293.91496874 122.85282898 296.56089783 C122.84952731 298.48039228 122.8458011 300.39988603 122.8416875 302.31937891 C122.83169331 307.58897636 122.82795485 312.85856241 122.82529819 318.12816799 C122.8213873 323.8143168 122.81180932 329.50045665 122.80308533 335.18659973 C122.78334006 348.91876942 122.77325584 362.65093982 122.76435754 376.38312015 C122.75997029 382.85765861 122.7546045 389.33219626 122.74936867 395.80673409 C122.73235612 417.34469304 122.7178397 438.88265071 122.71061993 460.4206152 C122.71014518 461.81280918 122.70966929 463.20500317 122.70919226 464.59719715 C122.70895589 465.28756267 122.70871951 465.97792818 122.70847597 466.68921387 C122.70727485 470.18660808 122.70605938 473.68400228 122.70483398 477.18139648 C122.70459383 477.8754508 122.70435368 478.56950511 122.70410626 479.28459137 C122.69622453 501.75525466 122.67281649 524.22586497 122.64027804 546.69650515 C122.6058928 570.48624879 122.58626169 594.27595791 122.58297569 618.06572729 C122.58081613 631.02037814 122.57214926 643.97495118 122.54651451 656.92957878 C122.52472071 667.96842288 122.51679946 679.00717026 122.52648129 690.04603343 C122.53100132 695.66937673 122.52927489 701.29252085 122.50971985 706.91583633 C122.33892806 759.00042221 130.29810512 802.87802804 167.875 841.1875 C187.91732627 861.07101741 213.61644445 873.94243733 241 880.1875 C241.67458252 880.3424292 242.34916504 880.4973584 243.04418945 880.65698242 C257.12634281 883.69217141 270.85403566 884.2915119 285.19992065 884.26069641 C287.21207798 884.26372222 289.22423416 884.26761384 291.23638833 884.27228898 C296.72962237 884.28252295 302.22279081 884.28039891 307.71603012 884.27610838 C313.65495752 884.27363266 319.59386947 884.28266598 325.53279114 884.29014587 C337.15576888 884.30287295 348.77872491 884.30469465 360.40170829 884.30234561 C369.85670704 884.30050838 379.31169903 884.30228158 388.76669693 884.30657005 C390.12821332 884.30717247 391.48972971 884.30777367 392.8512461 884.30837366 C394.90332124 884.30928098 396.95539639 884.31018965 399.00747153 884.31110601 C418.0748863 884.31952941 437.14229853 884.32387566 456.20971489 884.31969929 C456.92771286 884.31954291 457.64571082 884.31938654 458.3854663 884.31922542 C462.02399744 884.31841972 465.66252858 884.31757395 469.30105971 884.31671212 C470.02359217 884.31654103 470.74612464 884.31636994 471.49055203 884.31619367 C472.95168844 884.31584701 474.41282484 884.31549848 475.87396125 884.31514808 C498.58753902 884.309796 521.30107792 884.31770922 544.01464844 884.33618164 C569.57667988 884.35694665 595.13868724 884.36761549 620.70072758 884.36360615 C623.43220019 884.36321086 626.1636728 884.3628493 628.89514542 884.36250877 C629.56762292 884.36241804 630.24010042 884.36232731 630.93295604 884.36223383 C641.0401213 884.36107277 651.14726208 884.36767873 661.25442123 884.37832069 C672.76703006 884.39027873 684.27958175 884.39159029 695.79219143 884.37953053 C701.65655158 884.37367181 707.52080745 884.37245823 713.38516045 884.38453293 C752.96401067 885.12472997 752.96401067 885.12472997 791.625 877.75 C793.10504517 877.29548462 793.10504517 877.29548462 794.61499023 876.83178711 C802.81087095 874.23489309 810.38984815 870.9948983 818 867 C819.27266133 866.36432909 820.54612089 865.73025415 821.8203125 865.09765625 C855.01200306 848.34295905 881.13031177 817.55588201 892.9140625 782.40234375 C893.27242187 781.27957031 893.63078125 780.15679688 894 779 C894.35835937 777.92878906 894.71671875 776.85757813 895.0859375 775.75390625 C900.35416578 758.93914756 901.45156805 741.55588454 901.38095093 724.04542542 C901.38441883 722.13319522 901.3891909 720.22096704 901.39513266 718.30874294 C901.40751707 713.11967824 901.40153033 707.93078161 901.39217401 702.74171674 C901.38533164 697.11992471 901.39589025 691.49815978 901.40411377 685.87637329 C901.41739866 674.88888157 901.41459678 663.90145161 901.40587585 652.91395754 C901.39907862 643.97728532 901.39819137 635.0406303 901.4014473 626.10395622 C901.401907 624.82816116 901.40236669 623.5523661 901.40284032 622.23791058 C901.40379958 619.64549788 901.40477222 617.05308518 901.4057581 614.46067249 C901.4140537 590.88667751 901.40547569 567.31272374 901.38973031 543.7387357 C901.37549745 522.26615415 901.37676827 500.793626 901.39111328 479.32104492 C901.40721407 455.1400623 901.4134712 430.95911761 901.40427649 406.77812809 C901.40332093 404.19537191 901.40237781 401.61261573 901.4014473 399.02985954 C901.40075306 397.12412057 901.40075306 397.12412057 901.40004479 395.17988183 C901.39746373 386.26321489 901.4018068 377.34656701 901.40888596 368.42990303 C901.41733446 357.55012456 901.41495083 346.67041095 901.39904372 335.79063983 C901.39120565 330.24862791 901.38799245 324.70672381 901.39799118 319.16471291 C901.40703213 314.07627853 901.40185316 308.98805031 901.38605852 303.89963423 C901.38274999 302.07417805 901.38431423 300.24870387 901.39168589 298.42325956 C901.56051545 253.08242761 886.84187261 214.28668241 855 182 C823.71044034 151.04896726 781.50886804 139.63834918 738.58802795 139.74603271 C736.56518153 139.74372385 734.54233594 139.74054448 732.51949209 139.73657823 C727.00166782 139.72828005 721.48391331 139.73233273 715.96608889 139.73855066 C709.99938603 139.74309467 704.03269478 139.73608174 698.06599426 139.73059082 C687.06649092 139.7222278 676.06700817 139.72292939 665.06750405 139.72841376 C654.90324555 139.73345642 644.73899513 139.7347529 634.57473564 139.73236847 C633.89899267 139.7322157 633.22324971 139.73206293 632.52702968 139.73190553 C629.78355762 139.73128279 627.04008556 139.73064599 624.2966135 139.729986 C598.59008946 139.72387573 572.88357944 139.72940252 547.17705757 139.7401798 C524.36941433 139.74966906 501.56179343 139.74882176 478.75415039 139.73925781 C453.0944058 139.72853371 427.4346736 139.72431025 401.77492708 139.73048234 C399.03631143 139.73112372 396.29769578 139.7317494 393.55908012 139.73236847 C392.54769982 139.7326057 392.54769982 139.7326057 391.51588758 139.73284773 C381.36204464 139.73511666 371.20821067 139.73247335 361.05436897 139.72740936 C349.50094149 139.72167589 337.94753908 139.72334358 326.39411456 139.73397085 C320.50443215 139.73921065 314.61479495 139.74131326 308.72511292 139.73467255 C303.32467935 139.72867578 297.92433255 139.73204923 292.52390676 139.74262765 C290.57927798 139.74484597 288.63464174 139.74376104 286.69001783 139.73887607 C237.81063949 139.62559074 192.99685223 155.23365855 159.46191406 191.87988281 Z " fill="#FEF5E1" transform="translate(0,0)"/>
<path d="M0 0 C2.01567981 -0.00258672 4.03135912 -0.00560074 6.04703772 -0.0090034 C11.56841572 -0.0170406 17.0897807 -0.01886114 22.61116385 -0.01960087 C28.57325826 -0.02145716 34.535346 -0.02900739 40.49743652 -0.03573608 C54.20566872 -0.05000338 67.91389993 -0.05584299 81.62213785 -0.06042803 C88.4044732 -0.0627682 95.1868077 -0.06637132 101.96914238 -0.07012341 C125.21136276 -0.08295557 148.45358267 -0.0936748 171.6958065 -0.09712601 C173.15334224 -0.09734764 174.61087798 -0.09756942 176.06841371 -0.09779136 C177.52935388 -0.09801199 178.99029405 -0.09823248 180.45123422 -0.09845281 C183.38184698 -0.09889534 186.31245975 -0.09934246 189.24307251 -0.09979248 C189.96968774 -0.09990187 190.69630297 -0.10001126 191.44493684 -0.10012397 C214.99053876 -0.10375233 238.53610985 -0.11966574 262.08169997 -0.14298284 C287.00832977 -0.1676222 311.93494197 -0.18130075 336.86158431 -0.18249393 C339.60203465 -0.18266536 342.34248499 -0.18288078 345.08293533 -0.18312836 C346.09500986 -0.18321201 346.09500986 -0.18321201 347.12753033 -0.18329735 C357.94883974 -0.18444424 368.77011731 -0.19543526 379.591416 -0.21001541 C390.48446618 -0.22443757 401.37747397 -0.22733441 412.27053098 -0.21957543 C418.16272417 -0.2156836 424.05481104 -0.21652649 429.94699097 -0.23063278 C435.35464847 -0.24345998 440.76212073 -0.2420976 446.1697783 -0.23004207 C448.11261153 -0.22810023 450.05545829 -0.23109231 451.99827258 -0.23988643 C490.70104444 -0.40379978 529.83926567 9.7934003 559.21621704 36.14044189 C559.70428833 36.56969971 560.19235962 36.99895752 560.69522095 37.44122314 C584.12290427 58.05461424 601.43572519 84.46580029 608.46621704 115.07794189 C608.61744019 115.73206055 608.76866333 116.3861792 608.92446899 117.06011963 C611.9730579 131.4802378 612.51034212 145.94127872 612.47691345 160.62072754 C612.47994113 162.53021701 612.48383367 164.43970527 612.48850602 166.34919143 C612.49871539 171.54918951 612.49662237 176.74911811 612.49232543 181.94912171 C612.48984527 187.57573312 612.4988883 193.20232835 612.50636292 198.82893372 C612.5190763 209.83400363 612.5209078 220.8390491 612.51856265 231.84412512 C612.51677555 240.79472458 612.51853753 249.74531665 612.52278709 258.69591522 C612.52338228 259.97254097 612.52397747 261.24916671 612.5245907 262.56447808 C612.52580252 265.15842265 612.52701665 267.75236721 612.52823307 270.34631178 C612.53601332 287.7481195 612.53994434 305.14992234 612.53591633 322.55173111 C612.53575995 323.23114355 612.53560358 323.91055599 612.53544246 324.61055669 C612.53463677 328.05346775 612.533791 331.49637879 612.53292916 334.93928984 C612.53275807 335.62296598 612.53258698 336.30664213 612.53241071 337.01103573 C612.53206405 338.39359222 612.53171552 339.7761487 612.53136513 341.15870519 C612.52600971 362.66418964 612.53393715 384.16963306 612.55239868 405.67510986 C612.57315474 429.88132077 612.58380346 454.08749854 612.5798232 478.29372096 C612.57791492 491.0938313 612.58036225 503.89390429 612.59453773 516.69400787 C612.60648429 527.59110863 612.6078198 538.48814902 612.59574757 549.38525066 C612.58988182 554.93724017 612.58869527 560.48911945 612.60074997 566.04110146 C612.61168657 571.1376569 612.6084141 576.2340111 612.59448829 581.33055744 C612.59186258 583.16015502 612.59413973 584.98976878 612.60222415 586.81935039 C612.67007791 603.34097835 611.3372118 620.07822421 606.46621704 635.95294189 C606.2094519 636.81419678 605.95268677 637.67545166 605.68814087 638.56280518 C594.61744861 674.51508637 568.38285476 706.62624087 535.12246704 724.37091064 C531.2008505 726.3971415 527.22229237 728.28806561 523.21621704 730.14044189 C521.76215454 730.83073486 521.76215454 730.83073486 520.27871704 731.53497314 C488.80446938 745.61791066 455.06501316 744.59311044 421.35418975 744.54727495 C415.42427392 744.54249911 409.49438915 744.55509162 403.56448364 744.56529236 C391.97996343 744.58239915 380.39549766 744.58333745 368.81096811 744.57807945 C359.38720211 744.57393453 349.96345145 744.57543736 340.5396862 744.58082771 C339.17983004 744.58158462 337.81997387 744.5823406 336.46011771 744.58309566 C334.41030767 744.584241 332.36049764 744.58539089 330.31068762 744.5865549 C311.28612388 744.59723966 292.261566 744.60200587 273.23700047 744.59408474 C272.52178788 744.59378757 271.80657529 744.59349039 271.06968959 744.59318421 C265.26371349 744.59073592 259.45773747 744.58812401 253.65176145 744.58550008 C231.01037668 744.57539895 208.36906609 744.58375877 185.72769165 744.60699463 C160.21940905 744.63313107 134.71117107 744.64589849 109.2028746 744.63880688 C106.47743762 744.63809094 103.75200064 744.63741654 101.02656364 744.63676643 C100.02014603 744.63651172 100.02014603 744.63651172 98.99339674 744.63625186 C88.91620467 744.63395998 78.83905614 744.64191575 68.76187325 744.65505791 C57.28867861 744.66983654 45.81558774 744.67034152 34.34239502 744.652987 C28.50009154 744.64452173 22.65797299 744.64221706 16.81567955 744.65763855 C-37.17859819 744.78992681 -82.33086314 737.69172873 -122.78378296 699.14044189 C-123.50307983 698.47399658 -124.22237671 697.80755127 -124.96347046 697.12091064 C-151.23218519 672.06540965 -165.12849871 634.57507908 -166.12782776 598.7456976 C-166.19117428 594.49985545 -166.18675123 590.25568252 -166.17146301 586.00950623 C-166.17564918 584.07807699 -166.18113364 582.14665023 -166.18778282 580.2152279 C-166.20208796 574.97302218 -166.19804009 569.73097567 -166.19061601 564.48876178 C-166.18584921 558.80966762 -166.19842496 553.13060619 -166.20863342 547.45152283 C-166.22575837 536.35106792 -166.22667459 525.25066978 -166.22142052 514.1502051 C-166.21736584 505.12058596 -166.21883773 496.09098348 -166.22416878 487.06136513 C-166.22529141 485.12772349 -166.22529141 485.12772349 -166.22643672 483.15501839 C-166.22796833 480.53555216 -166.22950667 477.91608592 -166.23105169 475.29661969 C-166.24086764 457.73117948 -166.24505774 440.16574801 -166.2374258 422.60030651 C-166.23712863 421.91491949 -166.23683146 421.22953246 -166.23652528 420.52337614 C-166.23407689 414.95923529 -166.23146503 409.39509452 -166.22884115 403.83095376 C-166.21874212 382.13680516 -166.22709425 360.442734 -166.25033569 338.74859619 C-166.27646883 314.31635515 -166.28919065 289.88416841 -166.28214794 265.45191175 C-166.27866515 252.53717825 -166.28082549 239.62250829 -166.29839897 226.70778465 C-166.31317389 215.71423151 -166.31368754 204.72078666 -166.29632806 193.72723552 C-166.28785919 188.1282368 -166.28556703 182.52943109 -166.30097961 176.93044281 C-166.41593622 131.93987017 -161.99199007 89.32783753 -130.78378296 54.14044189 C-130.13288696 53.39334961 -130.13288696 53.39334961 -129.46884155 52.63116455 C-102.15343906 21.39883642 -64.37178792 3.9359935 -23.26006007 0.34556437 C-15.51653252 -0.11135304 -7.75431418 -0.00399031 0 0 Z M-48.72128296 29.32794189 C-49.45798218 29.54007324 -50.1946814 29.75220459 -50.95370483 29.97076416 C-62.83801442 33.51962129 -74.50407205 38.12523377 -84.78378296 45.14044189 C-86.08315796 46.01442627 -86.08315796 46.01442627 -87.40878296 46.90606689 C-114.62064055 65.92344465 -133.80414652 94.38404533 -139.78378296 127.14044189 C-141.70877108 138.52535305 -142.07100823 149.61497229 -142.04447937 161.13897705 C-142.04750585 163.02056625 -142.0513978 164.90215422 -142.05607194 166.78374004 C-142.06629715 171.9159864 -142.06418415 177.04816247 -142.05989134 182.18041444 C-142.05741404 187.73075238 -142.06645084 193.28107383 -142.07392883 198.83140564 C-142.08665116 209.69170325 -142.08847251 220.5519761 -142.08612857 231.4122799 C-142.08434207 240.24658661 -142.08610217 249.08088584 -142.09035301 257.91519165 C-142.0909482 259.17485876 -142.09154339 260.43452587 -142.09215662 261.73236471 C-142.09336844 264.29183889 -142.09458257 266.85131306 -142.09579899 269.41078722 C-142.1035813 286.58617049 -142.10750891 303.76155094 -142.10348225 320.93693542 C-142.10332587 321.6077323 -142.10316949 322.27852917 -142.10300838 322.96965323 C-142.10220269 326.36895072 -142.10135691 329.7682482 -142.10049508 333.16754568 C-142.10032399 333.84256647 -142.1001529 334.51758726 -142.09997663 335.21306323 C-142.09962997 336.57811864 -142.09928144 337.94317405 -142.09893104 339.30822946 C-142.09357815 360.53145084 -142.10149495 381.75463062 -142.1199646 402.97784424 C-142.14072833 426.86470104 -142.1513677 450.75153228 -142.14738911 474.63840103 C-142.14548159 487.26981318 -142.14792048 499.90118747 -142.16210365 512.53259277 C-142.17405998 523.28914952 -142.17537508 534.04564511 -142.16331349 544.80220276 C-142.15745383 550.28151709 -142.15624388 555.7607198 -142.16831589 561.24002647 C-142.26286253 607.35306322 -139.1607606 647.25205394 -105.78378296 682.14044189 C-105.22432983 682.75145752 -104.66487671 683.36247314 -104.08847046 683.99200439 C-80.76681302 708.66564198 -46.74125917 718.37679278 -13.78085637 719.3239733 C-8.53334355 719.42066996 -3.28651828 719.41253999 1.96166992 719.40113831 C3.972031 719.40416734 5.98239092 719.40806055 7.99274886 719.41273087 C13.45767506 719.42292255 18.92253501 719.42085186 24.38746643 719.41655028 C30.30443511 719.41406688 36.2213885 719.42311704 42.13835144 719.43058777 C53.70683163 719.44329167 65.27528855 719.4451339 76.84377454 719.44278751 C86.25243615 719.44094833 95.66109098 719.4427275 105.06975174 719.44701195 C106.42585196 719.44761437 107.78195219 719.44821557 109.13805241 719.44881555 C111.18203886 719.44972289 113.22602531 719.45063157 115.27001175 719.4515479 C134.24991565 719.45996569 153.22981701 719.46432118 172.20972252 719.46014118 C173.28083925 719.45990662 173.28083925 719.45990662 174.37359471 719.45966732 C177.9920825 719.45886164 181.61057029 719.45801587 185.22905807 719.45715401 C185.94758655 719.45698293 186.66611503 719.45681184 187.4064171 719.45663557 C188.8594518 719.45628891 190.3124865 719.45594038 191.7655212 719.45558998 C214.37247431 719.45023335 236.9793884 719.45816638 259.58633423 719.47662354 C285.03777046 719.49737915 310.48918253 719.50805962 335.94062769 719.50404805 C338.65876873 719.50365276 341.37690977 719.5032912 344.09505081 719.50295067 C345.09882227 719.50281457 345.09882227 719.50281457 346.12287193 719.50267572 C356.18560736 719.50151409 366.24831719 719.50816159 376.3110466 719.51876259 C387.7654296 719.53070839 399.21975517 719.53204538 410.67413901 719.51997242 C416.50980868 719.51410654 422.34537347 719.51292058 428.181036 719.52497482 C433.53781348 719.53591068 438.8943995 719.5326398 444.25116833 719.51871314 C446.17423312 719.51608727 448.0973133 719.51836511 450.0203629 719.526449 C469.1720869 719.60127755 488.20912695 718.07227284 506.21621704 711.14044189 C507.20114136 710.76145752 507.20114136 710.76145752 508.20596313 710.37481689 C524.62477651 703.90403606 538.23777299 695.04443732 551.21621704 683.14044189 C551.89039673 682.54876221 552.56457642 681.95708252 553.25918579 681.34747314 C575.2638243 661.01539623 586.41680593 629.37054595 588.21621704 600.14044189 C588.36323622 593.94618742 588.36007335 587.75376497 588.35665894 581.55804443 C588.35924608 579.67293281 588.3622602 577.78782172 588.36566234 575.90271139 C588.37369451 570.74232234 588.37551979 565.58194722 588.3762598 560.42155266 C588.37811696 554.84804795 588.38566757 549.27455036 588.39239502 543.7010498 C588.40595161 531.52312887 588.41199879 519.34521124 588.41640568 507.16728401 C588.41917244 499.55727697 588.42341056 491.9472712 588.42790985 484.33726501 C588.44009866 463.24953544 588.45043431 442.1618067 588.45378494 421.07407379 C588.45400657 419.71195264 588.45422835 418.34983148 588.45445029 416.98771033 C588.45467093 415.62241401 588.45489141 414.2571177 588.45511174 412.89182138 C588.45555428 410.1530803 588.4560014 407.41433922 588.45645142 404.67559814 C588.45656081 403.99655636 588.4566702 403.31751458 588.4567829 402.61789577 C588.46041184 380.61037121 588.47632798 358.60287962 588.49964178 336.59536768 C588.52427854 313.29619089 588.53795285 289.9970355 588.53915286 266.69784307 C588.54006799 254.00948626 588.54577964 241.32117264 588.56397247 228.63282776 C588.57941149 217.82738881 588.5844715 207.02200641 588.57623437 196.21655852 C588.57234143 190.70941098 588.57319095 185.2023772 588.58729172 179.69524384 C588.60011203 174.64173422 588.59876247 169.5884229 588.58670101 164.53491324 C588.584758 162.71862877 588.5877568 160.90232984 588.59654537 159.08606559 C588.75442423 124.21659383 578.96301575 89.77666043 554.21621704 64.14044189 C553.55621704 64.14044189 552.89621704 64.14044189 552.21621704 64.14044189 C551.91264282 63.32639893 551.91264282 63.32639893 551.60293579 62.49591064 C541.35272576 45.08499051 514.16038168 34.32061207 495.65371704 29.32794189 C494.93538696 29.13297119 494.21705688 28.93800049 493.47695923 28.73712158 C479.30876697 25.17465373 465.24070439 24.85051411 450.72795105 24.88647461 C448.684631 24.88416631 446.64131177 24.88098732 444.59799427 24.87702012 C439.01897245 24.86871418 433.44001954 24.87277822 427.86099756 24.87899256 C421.83021934 24.88353334 415.79945265 24.87652522 409.76867676 24.87103271 C398.64923251 24.86266661 387.5298071 24.86337284 376.41036274 24.86885565 C366.13556661 24.87389679 355.86077848 24.87519551 345.58598137 24.87281036 C344.9030928 24.87265759 344.22020424 24.87250482 343.51662208 24.87234742 C340.74419272 24.87172469 337.97176337 24.87108789 335.19933403 24.8704279 C309.2174338 24.86431658 283.23554744 24.86984609 257.25364935 24.88062169 C234.19778883 24.89011108 211.14195041 24.88926376 188.08609009 24.87969971 C162.15168686 24.8689774 136.21729588 24.86475114 110.28289074 24.87092423 C107.51534999 24.87156562 104.74780923 24.8721913 101.98026848 24.87281036 C101.29888526 24.87296852 100.61750205 24.87312667 99.91547086 24.87328962 C89.65077748 24.87555929 79.38609298 24.87291386 69.12140083 24.86785126 C57.4427576 24.86211983 45.76413539 24.86378131 34.08549447 24.87441275 C28.13113454 24.8796552 22.17681935 24.88175056 16.22245979 24.87511444 C10.76405905 24.86912326 5.30574422 24.87248209 -0.15264881 24.88306955 C-2.11949682 24.8852902 -4.0863522 24.88419757 -6.05319541 24.87931797 C-20.44024919 24.84638316 -34.81250123 25.21218217 -48.72128296 29.32794189 Z " fill="#F2DBB7" transform="translate(288.7837829589844,139.85955810546875)"/>
<path d="M0 0 C1.17382736 -0.01052147 1.17382736 -0.01052147 2.37136841 -0.02125549 C4.90909588 -0.03877099 7.44658914 -0.04511617 9.984375 -0.046875 C10.85507629 -0.04754974 11.72577759 -0.04822449 12.62286377 -0.04891968 C43.34982088 -0.0112114 80.77296635 2.22242068 108.734375 16.203125 C108.734375 44.583125 108.734375 72.963125 108.734375 102.203125 C101.144375 102.203125 93.554375 102.203125 85.734375 102.203125 C84.2184375 97.500625 84.2184375 97.500625 82.671875 92.703125 C74.57172418 68.20102483 63.79531966 44.80374227 40.046875 31.953125 C22.62434613 23.81826133 -0.24102544 23.3144264 -18.59375 28.8125 C-29.63573595 32.99435851 -39.52354703 38.14879792 -48.265625 46.203125 C-49.04421875 46.91339844 -49.8228125 47.62367188 -50.625 48.35546875 C-77.17050813 73.69841191 -87.54988851 115.29266431 -88.45776367 150.92407227 C-88.54155887 156.18102198 -88.54691043 161.43684715 -88.52636719 166.69433594 C-88.5156866 169.93443714 -88.5263024 173.17397844 -88.5390625 176.4140625 C-88.55183191 193.6336999 -87.98126067 210.93659932 -84.015625 227.765625 C-83.80019043 228.71123291 -83.58475586 229.65684082 -83.36279297 230.63110352 C-75.84957005 262.7865161 -63.60721331 294.71556005 -34.578125 313.390625 C-21.6590464 320.77583037 -8.13030949 323.55821695 6.546875 323.515625 C7.64580078 323.53173828 8.74472656 323.54785156 9.87695312 323.56445312 C21.43806084 323.5712658 34.27796257 321.53668944 43.39453125 313.79296875 C52.31997761 304.03482769 49.90579656 286.3226231 49.9375 274 C49.94032738 273.24871071 49.94315475 272.49742142 49.94606781 271.72336578 C49.96092611 267.75893316 49.97024361 263.79453576 49.97460938 259.83007812 C49.98012135 255.75958416 50.00424447 251.68942004 50.03258133 247.61903 C50.05126054 244.46188411 50.05641578 241.30481762 50.05794525 238.14762115 C50.06095272 236.64702777 50.06891605 235.14643513 50.08213043 233.64589691 C50.28046062 220.73135646 50.28046062 220.73135646 44.546875 209.453125 C38.1519488 204.33718404 31.1172318 202.27488987 23.234375 200.453125 C21.85765625 200.12248047 21.85765625 200.12248047 20.453125 199.78515625 C18.21561441 199.24908601 15.97527149 198.72486044 13.734375 198.203125 C13.734375 192.593125 13.734375 186.983125 13.734375 181.203125 C54.324375 181.203125 94.914375 181.203125 136.734375 181.203125 C136.734375 186.483125 136.734375 191.763125 136.734375 197.203125 C134.011875 197.821875 134.011875 197.821875 131.234375 198.453125 C125.16892887 199.9784379 119.50760714 201.614775 114.859375 205.953125 C111.48756375 212.69674751 111.47153748 219.56688693 111.57421875 226.93017578 C111.58023605 227.97509186 111.58625336 229.02000793 111.592453 230.09658813 C111.60559406 232.35332884 111.62269999 234.61004926 111.64337158 236.86673355 C111.68211394 241.66708947 111.68411362 246.46723879 111.68817139 251.26772881 C111.6959005 260.19464509 111.71781154 269.12084342 111.80615234 278.04736328 C111.86630727 284.26858409 111.87797557 290.48825629 111.85745239 296.70971298 C111.85872967 299.07725707 111.87803414 301.44486295 111.91574097 303.81210709 C111.96635313 307.12147731 111.95511495 310.4253264 111.9296875 313.73486328 C111.95943161 314.71060303 111.98917572 315.68634277 112.01982117 316.69165039 C111.95949433 319.52608151 111.80973048 321.57531839 110.734375 324.203125 C107.68373283 326.87462179 104.42068745 328.55784062 100.734375 330.203125 C99.7333374 330.69417725 98.7322998 331.18522949 97.70092773 331.69116211 C67.37384916 344.13476437 35.70964943 352.71724178 2.734375 353.203125 C1.44273437 353.25339844 0.15109375 353.30367187 -1.1796875 353.35546875 C-39.34842431 354.51422095 -76.05362104 344.15907541 -105.265625 319.203125 C-106.49539063 318.17445313 -106.49539063 318.17445313 -107.75 317.125 C-140.84389273 288.5532541 -156.6675595 242.10486035 -160.05908203 199.59863281 C-163.38512049 144.9195041 -150.84614442 92.90591384 -114.05078125 51.30859375 C-113.12317925 50.27273543 -112.1948799 49.23750079 -111.265625 48.203125 C-110.62496094 47.47738281 -109.98429688 46.75164062 -109.32421875 46.00390625 C-98.38474387 34.33023843 -84.44006288 25.40164272 -70.265625 18.203125 C-69.65009766 17.88649902 -69.03457031 17.56987305 -68.40039062 17.24365234 C-51.43772431 8.61360293 -34.02774865 4.06354725 -15.265625 1.203125 C-14.18079834 1.026604 -13.09597168 0.85008301 -11.97827148 0.66821289 C-7.97274163 0.16643513 -4.0297262 0.02422531 0 0 Z " fill="#1B684D" transform="translate(671.265625,329.796875)"/>
<path d="M0 0 C91.74 0 183.48 0 278 0 C278.33 29.37 278.66 58.74 279 89 C270.75 89 262.5 89 254 89 C252.845 85.04 251.69 81.08 250.5 77 C245.13271212 59.21628262 238.25214199 40.75048318 221.65234375 30.55859375 C207.79991274 23.20429203 191.57600066 21.82867554 176.16992188 20.45947266 C175.1966394 20.37251129 174.22335693 20.28554993 173.22058105 20.19595337 C172.12139343 20.09895645 172.12139343 20.09895645 171 20 C171.08179777 53.98845801 171.17397808 87.97686984 171.28005161 121.96526047 C171.29257024 125.97936287 171.30500305 129.99346553 171.31738281 134.00756836 C171.31984881 134.80669232 171.3223148 135.60581629 171.32485552 136.42915613 C171.36456184 149.36258413 171.39731859 162.29602085 171.42749982 175.22947418 C171.45863146 188.50379947 171.49724819 201.77808782 171.54279006 215.05237156 C171.57064875 223.24102181 171.59269313 231.42964509 171.60726251 239.61832995 C171.61781767 245.23624774 171.63565392 250.85411327 171.65916704 256.47199165 C171.67251232 259.71152719 171.6816133 262.9509759 171.68421364 266.19054031 C171.68754284 269.70825937 171.70303869 273.22572555 171.7215271 276.74339294 C171.718625 278.2682308 171.718625 278.2682308 171.71566427 279.82387346 C171.78181726 288.25500537 172.27495174 296.39417509 178 303 C188.53784798 311.89558596 201.79946827 314.65598035 215 317 C215 323.6 215 330.2 215 337 C165.17 337 115.34 337 64 337 C64 330.73 64 324.46 64 318 C68.08375 317.1646875 68.08375 317.1646875 72.25 316.3125 C83.50789641 313.86018436 94.10956119 310.92135041 102 302 C106.52292438 294.85086146 106.15047298 287.20894219 106.15821838 279.02822876 C106.16315636 277.92054307 106.16809434 276.81285739 106.17318195 275.67160547 C106.18854331 271.95896895 106.19691394 268.2463497 106.20532227 264.53369141 C106.21490186 261.87273915 106.22486892 259.21179098 106.23532104 256.55084229 C106.25705321 250.82147565 106.27520958 245.09210667 106.29092598 239.36272049 C106.31365435 231.07902661 106.34179303 222.79535803 106.37124526 214.51168565 C106.41888483 201.07144094 106.46215884 187.63118587 106.50268555 174.19091797 C106.54205898 161.13622227 106.58348963 148.08153577 106.62768555 135.02685547 C106.63040982 134.221943 106.63313409 133.41703054 106.63594092 132.58772679 C106.6496207 128.54965124 106.66334091 124.51157583 106.67708123 120.47350049 C106.79098889 86.98235266 106.89781085 53.49118562 107 20 C103.68969689 20.30035974 100.37997429 20.60672288 97.0703125 20.9140625 C96.14516846 20.99793213 95.22002441 21.08180176 94.2668457 21.16821289 C74.82645141 22.98515189 57.23913528 25.6788326 44 41.296875 C33.75822604 55.13927262 28.13050158 72.47799368 24 89 C15.75 89 7.5 89 -1 89 C-1.1541049 59.30912273 -0.59397536 29.69876785 0 0 Z " fill="#E2481F" transform="translate(223,337)"/>
<path d="M0 0 C1.26328125 0.01804687 2.5265625 0.03609375 3.828125 0.0546875 C4.79234375 0.07789063 5.7565625 0.10109375 6.75 0.125 C6.79574622 34.47033335 6.83100332 68.81565977 6.85213066 103.16101699 C6.85463217 107.21289484 6.8572208 111.26477263 6.85986328 115.31665039 C6.8603879 116.12332945 6.86091252 116.9300085 6.86145304 117.76113238 C6.87016315 130.83443149 6.88593644 143.90771307 6.90430559 156.98100177 C6.92298782 170.38861229 6.93411317 183.79621361 6.93817699 197.20383662 C6.94092554 205.48158589 6.94961641 213.75928561 6.96583293 222.03701963 C6.97637913 227.7081318 6.97960601 233.37921823 6.97700275 239.0503395 C6.97571776 242.32560602 6.97881337 245.60076708 6.98841095 248.87602234 C6.99829643 252.42208268 6.99599231 255.96792744 6.99050903 259.51399231 C6.99633472 260.55580983 7.0021604 261.59762734 7.00816262 262.67101508 C7.00418052 263.61750503 7.00019842 264.56399499 6.99609566 265.53916645 C6.9968551 266.3582232 6.99761454 267.17727996 6.99839699 268.02115661 C6.75 270.125 6.75 270.125 4.75 273.125 C3.9499065 256.30859973 3.60839844 239.53880933 3.63647461 222.70483398 C3.63675764 220.27753195 3.63659649 217.85022984 3.6360321 215.42292786 C3.63577786 209.59028834 3.64004964 203.75766568 3.64646976 197.92502999 C3.65370239 191.12190804 3.65512214 184.31878828 3.65625793 177.51566304 C3.65843197 165.38926338 3.6650467 153.26287056 3.67456055 141.13647461 C3.68377776 129.37573276 3.69083736 117.61499279 3.69506836 105.85424805 C3.69533108 105.12601522 3.69559381 104.3977824 3.69586449 103.64748191 C3.69716978 99.99316625 3.69843343 96.33885059 3.69967639 92.68453491 C3.70999752 62.49801839 3.72764596 32.31151015 3.75 2.125 C-1.2 2.125 -6.15 2.125 -11.25 2.125 C-6.91061709 -0.04469145 -4.76609592 -0.08826104 0 0 Z " fill="#FCE9D6" transform="translate(323.25,356.875)"/>
<path d="M0 0 C1.77049689 -0.05410687 3.54146849 -0.09284119 5.3125 -0.125 C6.29863281 -0.14820313 7.28476562 -0.17140625 8.30078125 -0.1953125 C11 0 11 0 14 2 C11 3 11 3 2 2 C2.33 92.42 2.66 182.84 3 276 C-1.04345186 271.95654814 -0.11769499 265.61817718 -0.12908131 260.21111739 C-0.12616847 259.18582029 -0.12325563 258.1605232 -0.12025452 257.10415649 C-0.12110894 256.00463791 -0.12196337 254.90511933 -0.12284368 253.772282 C-0.12449106 250.08726649 -0.11898921 246.40229648 -0.11352539 242.71728516 C-0.11324333 240.07603859 -0.11335758 237.43479481 -0.1139679 234.79354858 C-0.11449181 229.10673171 -0.1113588 223.41992632 -0.10573006 217.73311234 C-0.09759718 209.51097158 -0.094998 201.28883638 -0.09374207 193.06669204 C-0.09155436 179.7262616 -0.08490189 166.38583728 -0.07543945 153.04541016 C-0.06625807 140.08772818 -0.05918078 127.13004786 -0.05493164 114.17236328 C-0.05466892 113.37342481 -0.05440619 112.57448633 -0.05413551 111.7513376 C-0.05283046 107.74323032 -0.05156675 103.73512303 -0.05032361 99.72701573 C-0.03995975 66.4846727 -0.02234907 33.24233717 0 0 Z " fill="#FBE8DA" transform="translate(394,357)"/>
<path d="M0 0 C1.32 0 2.64 0 4 0 C4.02887512 3.64581687 4.04675585 7.29160463 4.0625 10.9375 C4.07087891 11.97841797 4.07925781 13.01933594 4.08789062 14.09179688 C4.09111328 15.08115234 4.09433594 16.07050781 4.09765625 17.08984375 C4.10289307 18.00628662 4.10812988 18.92272949 4.11352539 19.86694336 C4 22 4 22 3 23 C1.02571766 23.0966888 -0.95207831 23.12187075 -2.9287262 23.12025452 C-4.21746643 23.12162918 -5.50620667 23.12300385 -6.83399963 23.12442017 C-8.27548241 23.12088055 -9.71696495 23.11724573 -11.15844727 23.11352539 C-12.66596474 23.11324353 -14.17348236 23.11340123 -15.68099976 23.1139679 C-19.78619344 23.11425591 -23.89135815 23.10835861 -27.99654508 23.10139394 C-32.2820326 23.09516099 -36.56752072 23.09455665 -40.85301208 23.09336853 C-48.97386652 23.09025504 -57.09470756 23.08204141 -65.21555609 23.07201904 C-74.45844874 23.06085845 -83.70134202 23.05534759 -92.94423974 23.05032361 C-111.9628341 23.03985881 -130.98141597 23.02225903 -150 23 C-150 22.34 -150 21.68 -150 21 C-99.84 21 -49.68 21 2 21 C2 14.4 2 7.8 2 1 C1.01 0.505 1.01 0.505 0 0 Z " fill="#FEFAEF" transform="translate(436,653)"/>
<path d="M0 0 C0.33 0 0.66 0 1 0 C1 23.1 1 46.2 1 70 C0.67 70 0.34 70 0 70 C-0.33 72.64 -0.66 75.28 -1 78 C-1.33 78 -1.66 78 -2 78 C-2 55.23 -2 32.46 -2 9 C-1.67 9 -1.34 9 -1 9 C-0.67 6.03 -0.34 3.06 0 0 Z " fill="#D9DCC7" transform="translate(721,550)"/>
<path d="M0 0 C0.99 0.33 1.98 0.66 3 1 C3 9.91 3 18.82 3 28 C2.01 28 1.02 28 0 28 C0 18.76 0 9.52 0 0 Z " fill="#FCE7CE" transform="translate(220,359)"/>
</svg>
